<?xml version="1.0" encoding="UTF-8"?><svg id="_레이어_1" xmlns="http://www.w3.org/2000/svg" xmlns:xlink="http://www.w3.org/1999/xlink" viewBox="0 0 272.68 328.85"><defs><linearGradient id="_무제_그라디언트_6" x1="136.34" y1="326.3" x2="136.34" y2="53.62" gradientUnits="userSpaceOnUse"><stop offset="0" stop-color="#21316c"/><stop offset="1" stop-color="#0b0d20"/></linearGradient></defs><rect width="272.68" height="328.85" rx="19.66" ry="19.66" style="fill:url(#_무제_그라디언트_6);"/><path d="m219.67,100.11c0,3.17-.84,5.7-2.53,7.58-1.69,1.88-3.97,2.73-6.84,2.53-5.95-.3-11.55-1.16-16.8-2.6-5.25-1.44-9.81-3.94-13.68-7.51-3.77,3.57-8.23,6.07-13.38,7.51-5.15,1.44-10.7,2.3-16.65,2.6-2.88.2-5.15-.64-6.84-2.53-1.69-1.88-2.53-4.41-2.53-7.58v-8.62c0-5.25,3.07-9.27,9.22-12.04,3.87-1.88,6.14-5.1,6.84-9.66h-6.69c-2.88,0-5.15-.94-6.84-2.83-1.69-1.88-2.53-4.41-2.53-7.58v-6.99c0-3.17.84-5.7,2.53-7.58,1.68-1.88,3.96-2.82,6.84-2.82h6.54c1.29,0,2.38-.42,3.27-1.26.89-.84,1.78-1.78,2.67-2.82.89-1.04,1.78-2.01,2.68-2.9.89-.89,1.98-1.34,3.27-1.34h22.89c1.19,0,2.25.45,3.2,1.34.94.89,1.83,1.86,2.68,2.9.84,1.04,1.73,1.98,2.67,2.82.94.84,2.01,1.26,3.2,1.26h7.43c2.87,0,5.15.94,6.84,2.82,1.68,1.88,2.53,4.41,2.53,7.58v6.99c0,3.17-.84,5.7-2.53,7.58-1.69,1.88-3.97,2.83-6.84,2.83h-6.84c.89,4.66,3.22,7.88,6.99,9.66,6.14,2.77,9.22,6.79,9.22,12.04v8.62Zm45.34,58.42c0,3.17-.84,5.7-2.53,7.58-1.69,1.88-3.97,2.82-6.84,2.82h-105.84c-2.88,0-5.15-.94-6.84-2.82-1.69-1.88-2.53-4.41-2.53-7.58v-35.53c0-3.17.84-5.7,2.53-7.58,1.68-1.88,3.96-2.82,6.84-2.82h19.77c1.39,0,2.8.32,4.24.97,1.44.65,2.87,1.34,4.31,2.08,1.44.74,2.87,1.41,4.31,2.01,1.44.59,2.85.89,4.24.89h32.26c1.39,0,2.8-.3,4.24-.89,1.44-.59,2.87-1.26,4.31-2.01,1.44-.74,2.87-1.44,4.31-2.08,1.44-.64,2.85-.97,4.24-.97h19.62c2.87,0,5.15.94,6.84,2.82,1.68,1.88,2.53,4.41,2.53,7.58v35.53Zm-37.61-16.95c-16.45,2.97-32.9,2.97-49.35,0v3.57c16.45,2.97,32.9,2.97,49.35,0v-3.57Zm37.61-42.37c0,3.17-.84,5.7-2.53,7.58-1.69,1.88-3.97,2.82-6.84,2.82h-22.89c-2.88,0-5.15-.94-6.84-2.82-1.69-1.88-2.53-4.41-2.53-7.58v-51.88c0-3.17.84-5.7,2.53-7.58,1.68-1.88,3.96-2.82,6.84-2.82h22.89c2.87,0,5.15.94,6.84,2.82,1.68,1.88,2.53,4.41,2.53,7.58v51.88Z" style="fill:#ffde76;"/><path d="m265.01,304.52c0,3.16-.84,5.69-2.52,7.57-1.68,1.88-3.96,2.82-6.82,2.82h-22.85c-2.87,0-5.14-.94-6.83-2.82-1.68-1.88-2.52-4.4-2.52-7.57v-34.57h-13.06c-5.93,13.16-14.19,23.52-24.78,31.08-10.58,7.57-22.9,12.04-36.94,13.43-2.77.3-5.02-.5-6.75-2.37-1.73-1.88-2.6-4.4-2.6-7.57v-18.54c0-2.97.82-5.44,2.45-7.42,1.63-1.98,3.88-3.21,6.75-3.71,4.25-.79,8.16-2.08,11.72-3.86,3.56-1.78,6.77-4.25,9.64-7.42h-21.22c-2.87,0-5.14-.94-6.83-2.82-1.68-1.88-2.52-4.4-2.52-7.57v-13.65c0-3.16.84-5.69,2.52-7.57,1.68-1.88,3.95-2.82,6.83-2.82h31.01v-8.6h-31.01c-2.87,0-5.14-.94-6.83-2.82-1.68-1.88-2.52-4.4-2.52-7.57v-16.62c0-3.16.84-5.69,2.52-7.57,1.68-1.88,3.95-2.82,6.83-2.82h62.01c2.87,0,5.14.94,6.82,2.82,1.68,1.88,2.52,4.4,2.52,7.57v30.64c0,.84-.05,1.66-.15,2.45h3.56v-33.09c0-3.16.84-5.69,2.52-7.57,1.68-1.88,3.95-2.82,6.83-2.82h22.85c2.87,0,5.14.94,6.82,2.82,1.68,1.88,2.52,4.4,2.52,7.57v110.97Z" style="fill:#ffde76;"/><path d="m85.88,100.11c0,3.17-.84,5.7-2.53,7.58-1.69,1.88-3.97,2.73-6.84,2.53-5.95-.3-11.55-1.16-16.8-2.6-5.25-1.44-9.81-3.94-13.68-7.51-3.77,3.57-8.23,6.07-13.38,7.51-5.15,1.44-10.7,2.3-16.65,2.6-2.88.2-5.15-.64-6.84-2.53-1.69-1.88-2.53-4.41-2.53-7.58v-8.62c0-5.25,3.07-9.27,9.22-12.04,3.87-1.88,6.14-5.1,6.84-9.66h-6.69c-2.88,0-5.15-.94-6.84-2.83-1.69-1.88-2.53-4.41-2.53-7.58v-6.99c0-3.17.84-5.7,2.53-7.58,1.68-1.88,3.96-2.82,6.84-2.82h6.54c1.29,0,2.38-.42,3.27-1.26.89-.84,1.78-1.78,2.67-2.82.89-1.04,1.78-2.01,2.68-2.9.89-.89,1.98-1.34,3.27-1.34h22.89c1.19,0,2.25.45,3.2,1.34.94.89,1.83,1.86,2.68,2.9.84,1.04,1.73,1.98,2.67,2.82.94.84,2.01,1.26,3.2,1.26h7.43c2.87,0,5.15.94,6.84,2.82,1.68,1.88,2.53,4.41,2.53,7.58v6.99c0,3.17-.84,5.7-2.53,7.58-1.69,1.88-3.97,2.83-6.84,2.83h-6.84c.89,4.66,3.22,7.88,6.99,9.66,6.14,2.77,9.22,6.79,9.22,12.04v8.62Zm45.34,58.42c0,3.17-.84,5.7-2.53,7.58-1.69,1.88-3.97,2.82-6.84,2.82H16.01c-2.88,0-5.15-.94-6.84-2.82-1.69-1.88-2.53-4.41-2.53-7.58v-35.53c0-3.17.84-5.7,2.53-7.58,1.68-1.88,3.96-2.82,6.84-2.82h19.77c1.39,0,2.8.32,4.24.97,1.44.65,2.87,1.34,4.31,2.08,1.44.74,2.87,1.41,4.31,2.01,1.44.59,2.85.89,4.24.89h32.26c1.39,0,2.8-.3,4.24-.89,1.44-.59,2.87-1.26,4.31-2.01,1.44-.74,2.87-1.44,4.31-2.08,1.44-.64,2.85-.97,4.24-.97h19.62c2.87,0,5.15.94,6.84,2.82,1.68,1.88,2.53,4.41,2.53,7.58v35.53Zm-37.61-16.95c-16.45,2.97-32.9,2.97-49.35,0v3.57c16.45,2.97,32.9,2.97,49.35,0v-3.57Zm37.61-42.37c0,3.17-.84,5.7-2.53,7.58-1.69,1.88-3.97,2.82-6.84,2.82h-22.89c-2.88,0-5.15-.94-6.84-2.82-1.69-1.88-2.53-4.41-2.53-7.58v-51.88c0-3.17.84-5.7,2.53-7.58,1.68-1.88,3.96-2.82,6.84-2.82h22.89c2.87,0,5.15.94,6.84,2.82,1.68,1.88,2.53,4.41,2.53,7.58v51.88Z" style="fill:#ffde76;"/><path d="m60.65,6.85h-28.9c-3.25,0-5.91,2.66-5.91,5.91v2.07c0,3.11,2.44,5.65,5.49,5.87v26.97h28.87v-26.93h.44c3.25,0,5.91-2.66,5.91-5.91v-2.07c0-3.25-2.66-5.91-5.91-5.91Z" style="fill:#ffde76;"/><path d="m42.59,58.86c-1.42.48-2.69,1.24-3.76,2.19l-4.96-5.62c1.8-1.59,3.92-2.84,6.29-3.66l2.43,7.1Z" style="fill:#fff;"/><path d="m36.19,64.51c-.64,1.3-1.02,2.72-1.12,4.21l-7.49-.47c.15-2.48.8-4.86,1.87-7.03l6.74,3.3Z" style="fill:#fff;"/><path d="m54.4,52.66l-3.3,6.74c-1.3-.64-2.72-1.02-4.21-1.12l.47-7.49c2.48.15,4.86.8,7.03,1.87Z" style="fill:#fff;"/><path d="m63.85,63.36l-7.1,2.43c-.48-1.42-1.24-2.69-2.19-3.76l5.63-4.96c1.59,1.8,2.84,3.92,3.66,6.29Z" style="fill:#fff;"/><path d="m58.54,83.4c-1.8,1.59-3.92,2.84-6.29,3.66l-2.43-7.1c1.42-.48,2.69-1.24,3.76-2.19l4.96,5.63Z" style="fill:#fff;"/><path d="m64.82,70.58c-.15,2.48-.8,4.86-1.87,7.03l-6.74-3.3c.64-1.3,1.02-2.72,1.12-4.21l7.49.47Z" style="fill:#fff;"/><path d="m45.51,80.54l-.47,7.49c-2.48-.15-4.86-.8-7.03-1.87l3.3-6.74c1.3.64,2.72,1.02,4.21,1.12Z" style="fill:#fff;"/><path d="m37.84,76.79l-5.62,4.96c-1.59-1.8-2.84-3.92-3.66-6.29l7.1-2.43c.48,1.42,1.24,2.69,2.19,3.76Z" style="fill:#fff;"/><polygon points="46.2 69.41 46.2 69.41 46.2 69.41 46.2 69.41"/><polygon points="46.2 69.41 46.2 69.41 46.2 69.41 46.2 69.41 46.2 69.41 46.2 69.41"/><rect x="46.2" y="69.41" height="0" transform="translate(-14.27 12) rotate(-12.84)"/><polygon points="46.2 69.41 46.2 69.41 46.2 69.41 46.2 69.41 46.2 69.41 46.2 69.41"/><polygon points="46.2 69.41 46.2 69.41 46.2 69.41 46.2 69.41"/><rect x="46.2" y="69.41" height="0" transform="translate(-14.27 12) rotate(-12.84)"/><rect x="46.2" y="69.41" width="0" height="0"/><polygon points="46.2 69.41 46.2 69.41 46.2 69.41 46.2 69.41 46.2 69.41 46.2 69.41"/><path d="m64.82,70.58c.11-1.74-.03-3.52-.43-5.31-.15-.65-.33-1.28-.54-1.9l-7.1,2.43c-.48-1.42-1.24-2.69-2.19-3.76l5.63-4.96c-1.63-1.84-3.6-3.34-5.79-4.41l-3.3,6.74c-1.3-.64-2.72-1.02-4.21-1.12l.47-7.49c-1.74-.11-3.52.03-5.31.43-.65.15-1.28.33-1.9.54l2.43,7.1c-1.42.48-2.69,1.24-3.76,2.19l-4.96-5.62c-1.84,1.63-3.34,3.6-4.41,5.79l6.74,3.3c-.64,1.3-1.02,2.72-1.12,4.21l-7.49-.47c-.11,1.74.03,3.52.43,5.31.15.65.33,1.28.54,1.9l7.1-2.43c.48,1.42,1.24,2.69,2.19,3.76l-5.62,4.96c1.63,1.84,3.6,3.34,5.79,4.41l3.3-6.74c1.3.64,2.72,1.02,4.21,1.12l-.47,7.49c1.74.11,3.52-.03,5.31-.43.65-.15,1.28-.33,1.9-.54l-2.43-7.1c1.42-.48,2.69-1.24,3.76-2.19l4.96,5.63c1.84-1.63,3.34-3.6,4.41-5.79l-6.74-3.3c.64-1.3,1.02-2.72,1.12-4.21l7.49.47Z" style="fill:#ffcc3b;"/><rect x="46.2" y="69.41" width="0" height="0" transform="translate(-14.27 12) rotate(-12.84)"/><polygon points="46.2 69.41 46.2 69.41 46.2 69.41 46.2 69.41"/><path d="m122.54,182.63H16.06c-2.89,0-5.18.95-6.88,2.84-1.7,1.89-2.54,4.44-2.54,7.63v12.26c0,3.19.85,5.73,2.54,7.63,1.69,1.89,3.99,2.84,6.88,2.84h.1v12.75c-.06.56-.1,1.15-.1,1.76,0,1.7-.5,3.09-1.49,4.19-1,1.1-2.07,2.12-3.22,3.07-1.15.95-2.22,1.97-3.21,3.07-1,1.1-1.5,2.49-1.5,4.19v11.66c0,3.19.85,5.73,2.54,7.63,1.69,1.89,3.99,2.84,6.88,2.84h28.26v13.76h-28.26c-2.89,0-5.18.95-6.88,2.84-1.7,1.89-2.54,4.44-2.54,7.63v13.76c0,3.19.85,5.73,2.54,7.63,1.69,1.89,3.99,2.84,6.88,2.84h106.47c2.89,0,5.18-.95,6.88-2.84,1.69-1.89,2.54-4.44,2.54-7.63v-13.76c0-3.19-.85-5.73-2.54-7.63-1.7-1.89-3.99-2.84-6.88-2.84h-28.26v-13.76h28.26c2.89,0,5.18-.95,6.88-2.84,1.69-1.89,2.54-4.44,2.54-7.63v-11.37c0-1.69-.5-3.14-1.49-4.34-1-1.2-2.07-2.34-3.22-3.44-1.15-1.1-2.22-2.24-3.22-3.44-.98-1.17-1.47-2.58-1.49-4.23v-13.87c2.89,0,5.18-.95,6.87-2.84,1.69-1.89,2.54-4.44,2.54-7.63v-12.26c0-3.19-.85-5.73-2.54-7.63-1.7-1.89-3.99-2.84-6.88-2.84Z" style="fill:#fff; stroke:#ffcc3b; stroke-miterlimit:10; stroke-width:5px;"/><path d="m59.77,220.74c.15-.07.23-.2.3-.35.68-.75,1.27-1.57,1.9-2.35.98-1.23,1.95-2.48,2.94-3.71,1.05-1.32,2.1-2.65,3.17-3.96.38-.47.68-1,1.14-1.4.22.58.35,1.19.21,1.79-.09.38-.08.72.06,1.07.06.15.12.31.06.47-.13.32-.09.64-.09.97,0,8.47,0,16.94,0,25.41,0,.2.05.43-.02.61-.12.35-.06.67.02,1.01.14.58.08.68-.52.93-.34-.26-.57-.63-.82-.96-1.09-1.47-2.28-2.87-3.41-4.31-1.06-1.35-2.14-2.67-3.21-4.01-1.32-1.66-2.67-3.32-3.96-5-.35-.45-.71-.89-1.07-1.33-.23-.27-.19-.48.03-.75.74-.91,1.45-1.85,2.18-2.77.15-.11.26-.24.33-.41.2-.17.66-.76.74-.95Z" style="fill:#f90128;"/><path d="m68.95,241.23c.61-.25.67-.35.52-.93-.08-.34-.14-.66-.02-1.01.06-.18.02-.4.02-.61,0-8.47,0-16.94,0-25.41,0-.32-.04-.65.09-.97.07-.16,0-.32-.06-.47-.14-.35-.15-.68-.06-1.07.14-.6,0-1.21-.21-1.79.18-.29.4-.13.47.03.17.35.46.6.7.9.67.86,1.36,1.71,2.04,2.56,1.22,1.54,2.44,3.08,3.67,4.61.44.55.91,1.08,1.36,1.62.08.18.2.34.36.45.07.12.11.26.2.37.83.98,1.6,2.02,2.42,3.01.6.73,1.1,1.53,1.8,2.18,0,.04.01.07.06.08q.28.55-.12,1.08c-.29.38-.59.75-.88,1.13-.08.11-.15.22-.23.33-.26.28-.54.55-.77.86-1.17,1.61-2.5,3.1-3.68,4.7-.19.3-.52.49-.64.84-.34.41-.75.75-.99,1.24-.2.15-.33.36-.46.58-.83.96-1.63,1.94-2.36,2.98h0c-.22.15-.36.38-.51.59-.59.8-1.32,1.49-1.83,2.35-.13.08-.21.19-.25.34-.41.03-.49-.3-.63-.57Z" style="fill:#df012b;"/></svg>