<?xml version="1.0" encoding="UTF-8"?><svg id="_레이어_1" xmlns="http://www.w3.org/2000/svg" xmlns:xlink="http://www.w3.org/1999/xlink" viewBox="0 0 272.68 328.85"><defs><linearGradient id="_무제_그라디언트_6" x1="136.34" y1="326.3" x2="136.34" y2="53.62" gradientUnits="userSpaceOnUse"><stop offset="0" stop-color="#21316c"/><stop offset="1" stop-color="#0b0d20"/></linearGradient></defs><rect width="272.68" height="328.85" rx="19.66" ry="19.66" style="fill:url(#_무제_그라디언트_6);"/><path d="m211.15,107.32c0,2.83-.75,5.09-2.25,6.76-1.51,1.68-3.54,2.43-6.1,2.26-5.31-.27-10.3-1.04-14.99-2.32-4.69-1.28-8.75-3.52-12.2-6.7-3.36,3.18-7.34,5.42-11.94,6.7-4.6,1.28-9.55,2.06-14.86,2.32-2.57.18-4.6-.57-6.1-2.26-1.5-1.68-2.26-3.93-2.26-6.76v-7.69c0-4.69,2.74-8.27,8.22-10.74,3.45-1.68,5.48-4.55,6.1-8.62h-5.97c-2.57,0-4.6-.84-6.1-2.52-1.5-1.68-2.26-3.93-2.26-6.76v-6.24c0-2.83.75-5.08,2.26-6.76,1.5-1.68,3.54-2.52,6.1-2.52h5.84c1.15,0,2.12-.38,2.92-1.13.8-.75,1.59-1.59,2.39-2.52.8-.93,1.59-1.79,2.39-2.59.8-.8,1.77-1.19,2.92-1.19h20.43c1.06,0,2.01.4,2.85,1.19.84.8,1.63,1.66,2.39,2.59.75.93,1.55,1.77,2.39,2.52.84.75,1.79,1.13,2.85,1.13h6.63c2.56,0,4.6.84,6.1,2.52,1.5,1.68,2.25,3.94,2.25,6.76v6.24c0,2.83-.75,5.09-2.25,6.76-1.51,1.68-3.54,2.52-6.1,2.52h-6.1c.8,4.16,2.87,7.03,6.24,8.62,5.48,2.48,8.22,6.06,8.22,10.74v7.69Zm40.46,52.13c0,2.83-.75,5.08-2.25,6.77-1.5,1.68-3.54,2.52-6.1,2.52h-94.45c-2.57,0-4.6-.84-6.1-2.52-1.5-1.68-2.26-3.94-2.26-6.77v-31.7c0-2.83.75-5.08,2.26-6.77,1.5-1.68,3.54-2.52,6.1-2.52h17.64c1.24,0,2.5.29,3.78.86,1.28.58,2.56,1.19,3.85,1.86,1.28.66,2.56,1.26,3.85,1.79,1.28.53,2.54.8,3.78.8h28.79c1.24,0,2.5-.27,3.78-.8,1.28-.53,2.56-1.13,3.85-1.79,1.28-.66,2.56-1.28,3.85-1.86,1.28-.57,2.54-.86,3.78-.86h17.51c2.56,0,4.6.84,6.1,2.52,1.5,1.68,2.25,3.94,2.25,6.77v31.7Zm-33.56-15.12c-14.68,2.65-29.36,2.65-44.04,0v3.18c14.68,2.65,29.36,2.65,44.04,0v-3.18Zm33.56-37.81c0,2.83-.75,5.09-2.25,6.77-1.5,1.68-3.54,2.52-6.1,2.52h-20.43c-2.57,0-4.6-.84-6.1-2.52-1.5-1.68-2.25-3.93-2.25-6.77v-46.29c0-2.83.75-5.08,2.25-6.76,1.5-1.68,3.54-2.52,6.1-2.52h20.43c2.56,0,4.6.84,6.1,2.52,1.5,1.68,2.25,3.94,2.25,6.76v46.29Z" style="fill:#ffde76;"/><path d="m251.61,289.72c0,2.82-.75,5.07-2.25,6.75-1.5,1.68-3.53,2.52-6.09,2.52h-20.39c-2.56,0-4.59-.84-6.09-2.52-1.5-1.68-2.25-3.93-2.25-6.75v-30.85h-11.65c-5.29,11.74-12.67,20.98-22.11,27.74-9.44,6.75-20.43,10.74-32.96,11.98-2.47.27-4.48-.44-6.02-2.12-1.55-1.68-2.32-3.93-2.32-6.75v-16.55c0-2.65.73-4.85,2.18-6.62,1.46-1.76,3.46-2.87,6.02-3.31,3.79-.71,7.28-1.85,10.46-3.44,3.18-1.59,6.04-3.79,8.61-6.62h-18.93c-2.56,0-4.59-.84-6.09-2.52-1.5-1.68-2.25-3.93-2.25-6.75v-12.18c0-2.82.75-5.07,2.25-6.75,1.5-1.68,3.53-2.52,6.09-2.52h27.67v-7.68h-27.67c-2.56,0-4.59-.84-6.09-2.52-1.5-1.68-2.25-3.93-2.25-6.75v-14.83c0-2.82.75-5.07,2.25-6.75,1.5-1.68,3.53-2.52,6.09-2.52h55.34c2.56,0,4.59.84,6.09,2.52,1.5,1.68,2.25,3.93,2.25,6.75v27.34c0,.75-.05,1.48-.13,2.19h3.18v-29.52c0-2.82.75-5.07,2.25-6.75,1.5-1.68,3.53-2.52,6.09-2.52h20.39c2.56,0,4.59.84,6.09,2.52,1.5,1.68,2.25,3.93,2.25,6.75v99.02Z" style="fill:#ffde76;"/><path d="m91.77,107.32c0,2.83-.75,5.09-2.25,6.76-1.51,1.68-3.54,2.43-6.1,2.26-5.31-.27-10.3-1.04-14.99-2.32-4.69-1.28-8.75-3.52-12.2-6.7-3.36,3.18-7.34,5.42-11.94,6.7-4.6,1.28-9.55,2.06-14.86,2.32-2.57.18-4.6-.57-6.1-2.26-1.5-1.68-2.26-3.93-2.26-6.76v-7.69c0-4.69,2.74-8.27,8.22-10.74,3.45-1.68,5.48-4.55,6.1-8.62h-5.97c-2.57,0-4.6-.84-6.1-2.52-1.5-1.68-2.26-3.93-2.26-6.76v-6.24c0-2.83.75-5.08,2.26-6.76,1.5-1.68,3.54-2.52,6.1-2.52h5.84c1.15,0,2.12-.38,2.92-1.13.8-.75,1.59-1.59,2.39-2.52.8-.93,1.59-1.79,2.39-2.59.8-.8,1.77-1.19,2.92-1.19h20.43c1.06,0,2.01.4,2.85,1.19.84.8,1.63,1.66,2.39,2.59.75.93,1.55,1.77,2.39,2.52.84.75,1.79,1.13,2.85,1.13h6.63c2.56,0,4.6.84,6.1,2.52,1.5,1.68,2.25,3.94,2.25,6.76v6.24c0,2.83-.75,5.09-2.25,6.76-1.51,1.68-3.54,2.52-6.1,2.52h-6.1c.8,4.16,2.87,7.03,6.24,8.62,5.48,2.48,8.22,6.06,8.22,10.74v7.69Zm40.46,52.13c0,2.83-.75,5.08-2.25,6.77-1.5,1.68-3.54,2.52-6.1,2.52H29.42c-2.57,0-4.6-.84-6.1-2.52-1.5-1.68-2.26-3.94-2.26-6.77v-31.7c0-2.83.75-5.08,2.26-6.77,1.5-1.68,3.54-2.52,6.1-2.52h17.64c1.24,0,2.5.29,3.78.86,1.28.58,2.56,1.19,3.85,1.86,1.28.66,2.56,1.26,3.85,1.79,1.28.53,2.54.8,3.78.8h28.79c1.24,0,2.5-.27,3.78-.8,1.28-.53,2.56-1.13,3.85-1.79,1.28-.66,2.56-1.28,3.85-1.86,1.28-.57,2.54-.86,3.78-.86h17.51c2.56,0,4.6.84,6.1,2.52,1.5,1.68,2.25,3.94,2.25,6.77v31.7Zm-33.56-15.12c-14.68,2.65-29.36,2.65-44.04,0v3.18c14.68,2.65,29.36,2.65,44.04,0v-3.18Zm33.56-37.81c0,2.83-.75,5.09-2.25,6.77-1.5,1.68-3.54,2.52-6.1,2.52h-20.43c-2.57,0-4.6-.84-6.1-2.52-1.5-1.68-2.25-3.93-2.25-6.77v-46.29c0-2.83.75-5.08,2.25-6.76,1.5-1.68,3.54-2.52,6.1-2.52h20.43c2.56,0,4.6.84,6.1,2.52,1.5,1.68,2.25,3.94,2.25,6.76v46.29Z" style="fill:#ffde76;"/><path d="m69.26,24.11h-25.79c-2.9,0-5.27,2.37-5.27,5.27v1.85c0,2.77,2.18,5.04,4.9,5.24v24.07h25.76v-24.03h.4c2.9,0,5.27-2.37,5.27-5.27v-1.85c0-2.9-2.37-5.27-5.27-5.27Z" style="fill:#ffde76;"/><path d="m53.14,70.52c-1.27.43-2.4,1.1-3.36,1.95l-4.43-5.02c1.6-1.42,3.5-2.54,5.62-3.26l2.17,6.33Z" style="fill:#fff;"/><path d="m47.43,75.56c-.57,1.16-.91,2.43-1,3.75l-6.68-.42c.14-2.21.72-4.34,1.67-6.28l6.01,2.94Z" style="fill:#fff;"/><path d="m63.68,64.98l-2.94,6.01c-1.16-.57-2.43-.91-3.75-1l.42-6.68c2.21.14,4.34.72,6.28,1.67Z" style="fill:#fff;"/><path d="m72.11,74.53l-6.33,2.17c-.43-1.27-1.1-2.4-1.95-3.36l5.02-4.43c1.42,1.6,2.54,3.5,3.26,5.62Z" style="fill:#fff;"/><path d="m67.37,92.41c-1.6,1.42-3.5,2.54-5.61,3.26l-2.17-6.33c1.27-.43,2.4-1.1,3.36-1.95l4.43,5.02Z" style="fill:#fff;"/><path d="m72.97,80.97c-.14,2.21-.72,4.34-1.67,6.28l-6.01-2.94c.57-1.16.91-2.43,1-3.75l6.68.42Z" style="fill:#fff;"/><path d="m55.74,89.86l-.42,6.68c-2.21-.14-4.34-.72-6.28-1.67l2.94-6.01c1.16.57,2.43.91,3.75,1Z" style="fill:#fff;"/><path d="m48.9,86.51l-5.02,4.43c-1.42-1.6-2.54-3.5-3.26-5.62l6.33-2.17c.43,1.27,1.1,2.4,1.95,3.36Z" style="fill:#fff;"/><polygon points="56.36 79.93 56.36 79.93 56.36 79.93 56.36 79.93"/><polygon points="56.36 79.93 56.36 79.93 56.36 79.93 56.36 79.93 56.36 79.93 56.36 79.93"/><rect x="56.36" y="79.93" height="0" transform="translate(-16.35 14.52) rotate(-12.84)"/><polygon points="56.36 79.93 56.36 79.93 56.36 79.93 56.36 79.93 56.36 79.93 56.36 79.93"/><polygon points="56.36 79.93 56.36 79.93 56.36 79.93 56.36 79.93"/><rect x="56.36" y="79.93" height="0" transform="translate(-16.35 14.52) rotate(-12.84)"/><rect x="56.36" y="79.93" width="0" height="0"/><polygon points="56.36 79.93 56.36 79.93 56.36 79.93 56.36 79.93 56.36 79.93 56.36 79.93"/><path d="m72.97,80.97c.1-1.55-.02-3.14-.39-4.74-.13-.58-.29-1.15-.48-1.7l-6.33,2.17c-.43-1.27-1.1-2.4-1.95-3.36l5.02-4.43c-1.45-1.64-3.21-2.98-5.16-3.93l-2.94,6.01c-1.16-.57-2.43-.91-3.75-1l.42-6.68c-1.55-.1-3.14.02-4.74.39-.58.13-1.15.29-1.7.48l2.17,6.33c-1.27.43-2.4,1.1-3.36,1.95l-4.43-5.02c-1.64,1.45-2.98,3.21-3.93,5.16l6.01,2.94c-.57,1.16-.91,2.43-1,3.75l-6.68-.42c-.1,1.55.02,3.14.39,4.74.13.58.29,1.15.48,1.7l6.33-2.17c.43,1.27,1.1,2.4,1.95,3.36l-5.02,4.43c1.45,1.64,3.21,2.98,5.16,3.94l2.94-6.01c1.16.57,2.43.91,3.75,1l-.42,6.68c1.55.1,3.14-.02,4.74-.39.58-.13,1.15-.29,1.7-.48l-2.17-6.33c1.27-.43,2.4-1.1,3.36-1.95l4.43,5.02c1.64-1.45,2.98-3.21,3.94-5.16l-6.01-2.94c.57-1.16.91-2.43,1-3.75l6.68.42Z" style="fill:#ffcc3b;"/><rect x="56.36" y="79.93" width="0" height="0" transform="translate(-16.35 14.52) rotate(-12.84)"/><polygon points="56.36 79.93 56.36 79.93 56.36 79.93 56.36 79.93"/><path d="m124.48,180.96H29.47c-2.58,0-4.63.85-6.14,2.54-1.51,1.69-2.27,3.96-2.27,6.81v10.94c0,2.85.75,5.12,2.27,6.81,1.51,1.69,3.56,2.54,6.14,2.54h.09v11.38c-.05.5-.09,1.02-.09,1.57,0,1.51-.45,2.76-1.33,3.74-.89.98-1.85,1.89-2.87,2.74-1.02.85-1.98,1.76-2.87,2.74-.89.98-1.33,2.22-1.33,3.74v10.41c0,2.85.75,5.12,2.27,6.81,1.51,1.69,3.56,2.54,6.14,2.54h25.22v12.28h-25.22c-2.58,0-4.63.85-6.14,2.54-1.51,1.69-2.27,3.96-2.27,6.81v12.28c0,2.85.75,5.11,2.27,6.81,1.51,1.69,3.56,2.54,6.14,2.54h95.01c2.58,0,4.62-.85,6.14-2.54,1.51-1.69,2.27-3.96,2.27-6.81v-12.28c0-2.85-.76-5.11-2.27-6.81-1.51-1.69-3.56-2.54-6.14-2.54h-25.22v-12.28h25.22c2.58,0,4.62-.84,6.14-2.54,1.51-1.69,2.27-3.96,2.27-6.81v-10.14c0-1.51-.45-2.8-1.33-3.87-.89-1.07-1.85-2.09-2.87-3.07-1.02-.98-1.98-2-2.87-3.07-.87-1.04-1.31-2.3-1.33-3.77v-12.37c2.58,0,4.62-.85,6.13-2.53,1.51-1.69,2.27-3.96,2.27-6.81v-10.94c0-2.85-.76-5.11-2.27-6.81-1.51-1.69-3.56-2.54-6.14-2.54Z" style="fill:#fff; stroke:#ffcc3b; stroke-miterlimit:10; stroke-width:5px;"/><path d="m68.47,214.96c.13-.07.21-.18.27-.31.61-.67,1.14-1.4,1.7-2.1.88-1.1,1.74-2.21,2.62-3.31.94-1.18,1.88-2.37,2.83-3.53.34-.41.61-.89,1.02-1.25.19.52.31,1.06.19,1.6-.08.34-.07.64.06.95.06.14.11.28.05.42-.12.28-.08.57-.08.86,0,7.56,0,15.12,0,22.68,0,.18.04.38-.02.54-.11.31-.05.6.02.9.13.52.07.61-.47.83-.3-.23-.51-.56-.73-.86-.97-1.31-2.03-2.56-3.04-3.84-.94-1.2-1.91-2.38-2.86-3.58-1.18-1.49-2.38-2.96-3.53-4.47-.31-.4-.63-.8-.96-1.18-.2-.24-.17-.43.03-.67.66-.81,1.3-1.65,1.94-2.47.13-.1.23-.22.29-.37.18-.15.58-.68.66-.85Z" style="fill:#f90128;"/><path d="m76.66,233.25c.54-.22.6-.31.47-.83-.07-.3-.13-.59-.02-.9.06-.16.02-.36.02-.54,0-7.56,0-15.12,0-22.68,0-.29-.04-.58.08-.86.06-.14,0-.28-.05-.42-.13-.31-.14-.61-.06-.95.12-.54,0-1.08-.19-1.6.16-.26.35-.12.42.03.15.32.41.53.62.8.6.77,1.21,1.53,1.82,2.29,1.09,1.37,2.18,2.74,3.27,4.11.39.49.81.97,1.21,1.45.07.16.17.3.32.4.06.11.1.23.18.33.75.88,1.42,1.8,2.15,2.69.53.65.98,1.37,1.6,1.94,0,.04,0,.07.05.08q.25.49-.11.96c-.26.34-.52.67-.79,1.01-.07.1-.13.2-.2.29-.23.25-.48.49-.69.76-1.05,1.44-2.23,2.77-3.28,4.2-.17.26-.47.44-.57.75-.3.36-.67.67-.88,1.1-.18.14-.3.32-.41.52-.74.85-1.46,1.73-2.11,2.66h0c-.2.14-.32.34-.46.53-.53.71-1.18,1.33-1.63,2.1-.12.07-.19.17-.22.3-.36.03-.44-.27-.56-.51Z" style="fill:#df012b;"/></svg>