<?xml version="1.0" encoding="UTF-8"?><svg id="_레이어_1" xmlns="http://www.w3.org/2000/svg" viewBox="0 0 272.68 328.85"><path d="m166.76,186.34c0,5.69-1.51,10.23-4.53,13.61-3.03,3.38-7.12,4.9-12.27,4.54-10.67-.53-20.72-2.09-30.15-4.67-9.43-2.58-17.61-7.07-24.54-13.47-6.76,6.4-14.77,10.9-24.01,13.47-9.25,2.58-19.21,4.14-29.88,4.67-5.16.36-9.25-1.16-12.27-4.54-3.03-3.38-4.54-7.91-4.54-13.61v-15.48c0-9.42,5.51-16.63,16.54-21.61,6.94-3.38,11.03-9.16,12.27-17.34h-12.01c-5.16,0-9.25-1.69-12.27-5.07-3.03-3.38-4.54-7.91-4.54-13.61v-12.54c0-5.69,1.51-10.22,4.54-13.61,3.02-3.38,7.11-5.07,12.27-5.07h11.74c2.31,0,4.27-.75,5.87-2.27,1.6-1.51,3.2-3.2,4.8-5.07,1.6-1.87,3.2-3.6,4.8-5.2,1.6-1.6,3.56-2.4,5.87-2.4h41.09c2.13,0,4.04.8,5.74,2.4,1.69,1.6,3.29,3.34,4.8,5.2,1.51,1.87,3.11,3.56,4.8,5.07,1.69,1.52,3.6,2.27,5.74,2.27h13.34c5.16,0,9.25,1.69,12.27,5.07,3.02,3.38,4.53,7.92,4.53,13.61v12.54c0,5.69-1.51,10.23-4.53,13.61-3.03,3.38-7.12,5.07-12.27,5.07h-12.27c1.6,8.36,5.78,14.14,12.54,17.34,11.03,4.98,16.54,12.19,16.54,21.61v15.48Zm81.37,104.85c0,5.69-1.51,10.23-4.53,13.61-3.03,3.38-7.12,5.07-12.27,5.07H41.36c-5.16,0-9.25-1.69-12.27-5.07-3.03-3.38-4.54-7.92-4.54-13.61v-63.76c0-5.69,1.51-10.23,4.54-13.61,3.02-3.38,7.11-5.07,12.27-5.07h35.48c2.49,0,5.02.58,7.6,1.73,2.58,1.16,5.16,2.4,7.74,3.74,2.58,1.33,5.16,2.53,7.74,3.6,2.58,1.07,5.11,1.6,7.6,1.6h57.89c2.49,0,5.02-.53,7.6-1.6,2.58-1.07,5.16-2.27,7.74-3.6,2.58-1.34,5.16-2.58,7.74-3.74,2.58-1.16,5.11-1.73,7.6-1.73h35.22c5.16,0,9.25,1.69,12.27,5.07,3.02,3.38,4.53,7.92,4.53,13.61v63.76Zm-67.5-30.41c-29.53,5.34-59.05,5.34-88.57,0v6.4c29.52,5.34,59.05,5.34,88.57,0v-6.4Zm67.5-76.04c0,5.69-1.51,10.23-4.53,13.61-3.03,3.38-7.12,5.07-12.27,5.07h-41.09c-5.16,0-9.25-1.69-12.27-5.07-3.03-3.38-4.53-7.91-4.53-13.61v-93.11c0-5.69,1.51-10.22,4.53-13.61,3.02-3.38,7.11-5.07,12.27-5.07h41.09c5.16,0,9.25,1.69,12.27,5.07,3.02,3.38,4.53,7.92,4.53,13.61v93.11Z" style="fill:#ffde76;"/><path d="m121.48,18.98h-51.86c-5.83,0-10.61,4.77-10.61,10.61v3.72c0,5.58,4.38,10.14,9.86,10.53v48.41h51.81v-48.33h.8c5.83,0,10.61-4.77,10.61-10.61v-3.72c0-5.83-4.77-10.61-10.61-10.61Z" style="fill:#ffde76;"/><path d="m89.06,112.32c-2.55.87-4.82,2.22-6.75,3.92l-8.91-10.09c3.22-2.85,7.03-5.11,11.3-6.56l4.36,12.73Z" style="fill:#fff;"/><path d="m77.58,122.46c-1.14,2.33-1.84,4.89-2,7.55l-13.44-.84c.28-4.44,1.44-8.73,3.35-12.62l12.09,5.92Z" style="fill:#fff;"/><path d="m110.27,101.19l-5.92,12.09c-2.33-1.14-4.89-1.84-7.55-2l.84-13.44c4.44.28,8.73,1.44,12.62,3.35Z" style="fill:#fff;"/><path d="m127.21,120.4l-12.74,4.36c-.87-2.55-2.22-4.82-3.92-6.75l10.1-8.91c2.85,3.22,5.11,7.03,6.56,11.3Z" style="fill:#fff;"/><path d="m117.69,156.36c-3.22,2.85-7.03,5.11-11.29,6.56l-4.36-12.74c2.55-.87,4.83-2.22,6.75-3.92l8.91,10.1Z" style="fill:#fff;"/><path d="m128.96,133.35c-.28,4.44-1.44,8.73-3.35,12.62l-12.09-5.92c1.14-2.33,1.84-4.89,2-7.55l13.44.84Z" style="fill:#fff;"/><path d="m94.3,151.23l-.84,13.44c-4.44-.28-8.73-1.44-12.62-3.35l5.92-12.09c2.33,1.14,4.89,1.84,7.55,2Z" style="fill:#fff;"/><path d="m80.54,144.49l-10.09,8.91c-2.85-3.22-5.11-7.03-6.56-11.29l12.73-4.36c.87,2.55,2.22,4.83,3.92,6.75Z" style="fill:#fff;"/><polygon points="95.55 131.26 95.55 131.26 95.55 131.26 95.55 131.26"/><polygon points="95.55 131.26 95.55 131.26 95.55 131.26 95.55 131.26 95.55 131.26 95.55 131.26"/><rect x="95.55" y="131.26" height="0" transform="translate(-26.78 24.51) rotate(-12.84)"/><polygon points="95.55 131.26 95.55 131.26 95.55 131.26 95.55 131.26 95.55 131.26 95.55 131.26"/><polygon points="95.55 131.26 95.55 131.26 95.55 131.26 95.55 131.26"/><rect x="95.55" y="131.26" height="0" transform="translate(-26.78 24.51) rotate(-12.84)"/><rect x="95.55" y="131.26" width="0" height="0"/><polygon points="95.55 131.26 95.55 131.26 95.55 131.26 95.55 131.26 95.55 131.26 95.55 131.26"/><path d="m128.96,133.35c.2-3.12-.05-6.32-.78-9.53-.27-1.17-.59-2.31-.97-3.41l-12.74,4.36c-.87-2.55-2.22-4.82-3.92-6.75l10.1-8.91c-2.92-3.3-6.46-5.99-10.39-7.91l-5.92,12.09c-2.33-1.14-4.89-1.84-7.55-2l.84-13.44c-3.12-.2-6.32.05-9.53.78-1.17.27-2.31.59-3.41.97l4.36,12.73c-2.55.87-4.82,2.22-6.75,3.92l-8.91-10.09c-3.3,2.92-5.99,6.46-7.91,10.39l12.09,5.92c-1.14,2.33-1.84,4.89-2,7.55l-13.44-.84c-.2,3.12.05,6.32.78,9.53.27,1.17.59,2.31.97,3.41l12.73-4.36c.87,2.55,2.22,4.83,3.92,6.75l-10.09,8.91c2.92,3.3,6.46,5.99,10.39,7.92l5.92-12.09c2.33,1.14,4.89,1.84,7.55,2l-.84,13.44c3.12.19,6.32-.05,9.53-.78,1.17-.27,2.31-.59,3.41-.97l-4.37-12.74c2.55-.87,4.83-2.22,6.75-3.92l8.91,10.1c3.3-2.92,5.99-6.46,7.92-10.39l-12.09-5.92c1.14-2.33,1.84-4.89,2-7.55l13.44.84Z" style="fill:#ffcc3b;"/><rect x="95.55" y="131.26" width="0" height="0" transform="translate(-26.78 24.51) rotate(-12.84)"/><polygon points="95.55 131.26 95.55 131.26 95.55 131.26 95.55 131.26"/></svg>